<svg width="171" height="24" viewBox="0 0 171 24" fill="none" xmlns="http://www.w3.org/2000/svg">
<path d="M5.05195 23.4611H0L9.35315 0H14.4364L23.7739 23.4611H18.7219L16.7981 18.4248H6.97576L5.05195 23.4611ZM8.55547 14.2018H15.2341L11.8869 5.50553L8.55547 14.2018ZM42.1674 23.4611H38.2259L37.9913 21.3339C37.324 22.0847 36.5211 22.679 35.5826 23.117C34.6546 23.5549 33.638 23.7739 32.5327 23.7739C31.1042 23.7739 29.8269 23.4246 28.7007 22.726C27.585 22.0169 26.7039 21.0472 26.0574 19.8168C25.411 18.5864 25.0877 17.1944 25.0877 15.6407C25.0877 14.0766 25.411 12.6846 26.0574 11.4646C26.7039 10.2342 27.585 9.26973 28.7007 8.57111C29.8269 7.86207 31.1042 7.50755 32.5327 7.50755C33.5546 7.50755 34.5034 7.69523 35.3793 8.07061C36.2656 8.43556 37.032 8.94649 37.6785 9.6034V0H42.1674V23.4611ZM33.6901 19.7542C34.4304 19.7542 35.0978 19.5874 35.6921 19.2537C36.2969 18.9201 36.7765 18.4665 37.1311 17.893C37.496 17.3091 37.6785 16.6469 37.6785 15.9066V15.3435C37.6785 14.6032 37.496 13.9463 37.1311 13.3728C36.7765 12.7993 36.2969 12.351 35.6921 12.0277C35.0978 11.694 34.4304 11.5272 33.6901 11.5272C32.9289 11.5272 32.246 11.7045 31.6412 12.059C31.0364 12.4135 30.5568 12.9036 30.2022 13.5292C29.8581 14.1444 29.6861 14.8483 29.6861 15.6407C29.6861 16.4228 29.8581 17.1266 30.2022 17.7522C30.5568 18.3674 31.0364 18.8575 31.6412 19.2224C32.246 19.577 32.9289 19.7542 33.6901 19.7542ZM62.0937 23.4611H58.1522L57.9176 21.3339C57.2503 22.0847 56.4474 22.679 55.5089 23.117C54.5809 23.5549 53.5643 23.7739 52.459 23.7739C51.0305 23.7739 49.7531 23.4246 48.627 22.726C47.5113 22.0169 46.6302 21.0472 45.9837 19.8168C45.3372 18.5864 45.014 17.1944 45.014 15.6407C45.014 14.0766 45.3372 12.6846 45.9837 11.4646C46.6302 10.2342 47.5113 9.26973 48.627 8.57111C49.7531 7.86207 51.0305 7.50755 52.459 7.50755C53.4808 7.50755 54.4297 7.69523 55.3056 8.07061C56.1919 8.43556 56.9583 8.94649 57.6048 9.6034V0H62.0937V23.4611ZM53.6164 19.7542C54.3567 19.7542 55.0241 19.5874 55.6184 19.2537C56.2232 18.9201 56.7028 18.4665 57.0573 17.893C57.4223 17.3091 57.6048 16.6469 57.6048 15.9066V15.3435C57.6048 14.6032 57.4223 13.9463 57.0573 13.3728C56.7028 12.7993 56.2232 12.351 55.6184 12.0277C55.0241 11.694 54.3567 11.5272 53.6164 11.5272C52.8552 11.5272 52.1722 11.7045 51.5675 12.059C50.9627 12.4135 50.483 12.9036 50.1285 13.5292C49.7844 14.1444 49.6124 14.8483 49.6124 15.6407C49.6124 16.4228 49.7844 17.1266 50.1285 17.7522C50.483 18.3674 50.9627 18.8575 51.5675 19.2224C52.1722 19.577 52.8552 19.7542 53.6164 19.7542ZM84.1002 23.0544C82.901 23.5341 81.7384 23.7739 80.6123 23.7739C79.4444 23.7739 78.4121 23.5289 77.5154 23.0388C76.6291 22.5383 75.9357 21.8449 75.4352 20.9586C74.9347 20.0618 74.6844 19.0295 74.6844 17.8617V11.8244H71.9473V7.82036H74.9191V3.91018H79.1733V7.82036H83.5058V11.8244H79.1733V17.0484C79.1733 17.9034 79.4079 18.5707 79.8772 19.0504C80.3464 19.5196 80.9303 19.7542 81.6289 19.7542C82.265 19.7542 82.8854 19.5561 83.4902 19.1599L84.1002 23.0544ZM94.1415 23.7739C92.5357 23.7739 91.0968 23.4246 89.8247 22.726C88.5525 22.0169 87.5515 21.0524 86.8216 19.8324C86.1022 18.602 85.7424 17.2048 85.7424 15.6407C85.7424 14.0871 86.1022 12.7003 86.8216 11.4803C87.5515 10.2499 88.5525 9.28016 89.8247 8.57111C91.0968 7.86207 92.5357 7.50755 94.1415 7.50755C95.7473 7.50755 97.1758 7.86207 98.4271 8.57111C99.6887 9.28016 100.679 10.2499 101.399 11.4803C102.129 12.7003 102.494 14.0871 102.494 15.6407C102.494 17.2048 102.129 18.602 101.399 19.8324C100.679 21.0524 99.6887 22.0169 98.4271 22.726C97.1758 23.4246 95.7473 23.7739 94.1415 23.7739ZM94.1259 19.7542C94.8453 19.7542 95.4866 19.577 96.0497 19.2224C96.6232 18.8575 97.0715 18.3674 97.3948 17.7522C97.7284 17.1266 97.8953 16.4175 97.8953 15.6251C97.8953 14.843 97.7284 14.1444 97.3948 13.5292C97.0715 12.914 96.6232 12.4292 96.0497 12.0746C95.4866 11.7097 94.8453 11.5272 94.1259 11.5272C93.396 11.5272 92.7443 11.7097 92.1708 12.0746C91.6077 12.4292 91.1593 12.914 90.8257 13.5292C90.5024 14.1444 90.3408 14.843 90.3408 15.6251C90.3408 16.4175 90.5024 17.1266 90.8257 17.7522C91.1593 18.3674 91.6077 18.8575 92.1708 19.2224C92.7443 19.577 93.396 19.7542 94.1259 19.7542ZM126.471 20.9742C125.71 21.8501 124.776 22.5383 123.671 23.0388C122.566 23.5289 121.351 23.7739 120.027 23.7739C118.421 23.7739 116.982 23.4246 115.71 22.726C114.448 22.0169 113.453 21.0472 112.723 19.8168C112.003 18.5864 111.643 17.1944 111.643 15.6407C111.643 14.0766 112.003 12.6846 112.723 11.4646C113.453 10.2342 114.448 9.26973 115.71 8.57111C116.982 7.86207 118.421 7.50755 120.027 7.50755C121.341 7.50755 122.55 7.75258 123.656 8.24266C124.761 8.73274 125.694 9.4105 126.455 10.276L123.812 13.0444C123.405 12.5751 122.889 12.2102 122.264 11.9495C121.648 11.6784 121.002 11.5429 120.324 11.5429C119.542 11.5429 118.843 11.7201 118.228 12.0746C117.613 12.4187 117.128 12.8984 116.774 13.5136C116.419 14.1184 116.242 14.817 116.242 15.6094C116.242 16.4123 116.419 17.1266 116.774 17.7522C117.128 18.3778 117.613 18.8679 118.228 19.2224C118.843 19.5665 119.542 19.7386 120.324 19.7386C121.002 19.7386 121.654 19.6083 122.279 19.3476C122.905 19.0765 123.416 18.7063 123.812 18.2371L126.471 20.9742ZM143.175 23.4611H139.265L139.03 21.5998C138.457 22.288 137.748 22.825 136.903 23.2108C136.059 23.5862 135.131 23.7739 134.119 23.7739C133.024 23.7739 132.049 23.5654 131.194 23.1483C130.339 22.7208 129.667 22.1368 129.177 21.3965C128.687 20.6458 128.442 19.7959 128.442 18.8471C128.442 17.8461 128.707 16.965 129.239 16.2038C129.771 15.4426 130.501 14.8483 131.429 14.4207C132.367 13.9828 133.431 13.7638 134.62 13.7638C135.318 13.7638 136.017 13.842 136.716 13.9984C137.425 14.1549 138.081 14.3738 138.686 14.6554V14.2487C138.686 13.6231 138.509 13.0861 138.154 12.6377C137.81 12.1789 137.331 11.8244 136.716 11.5741C136.111 11.3239 135.433 11.1988 134.682 11.1988C133.963 11.1988 133.249 11.3135 132.539 11.5429C131.841 11.7722 131.194 12.1163 130.6 12.5751L129.38 9.14982C130.433 8.60761 131.497 8.20095 132.571 7.92985C133.655 7.64831 134.703 7.50755 135.715 7.50755C137.237 7.50755 138.556 7.80993 139.672 8.41471C140.787 9.00906 141.648 9.85365 142.252 10.9485C142.868 12.0329 143.175 13.3207 143.175 14.8118V23.4611ZM135.105 20.3173C135.699 20.3173 136.267 20.187 136.809 19.9263C137.352 19.6656 137.79 19.3111 138.123 18.8627C138.467 18.4143 138.65 17.9191 138.671 17.3768V17.2674C138.212 16.9545 137.701 16.7147 137.138 16.5479C136.585 16.3706 136.022 16.282 135.449 16.282C134.594 16.282 133.895 16.4697 133.353 16.8451C132.811 17.2204 132.539 17.7053 132.539 18.2996C132.539 18.6854 132.649 19.0348 132.868 19.3476C133.097 19.65 133.405 19.8898 133.791 20.067C134.177 20.2339 134.614 20.3173 135.105 20.3173ZM151.168 23.4611H146.679V7.82036H150.589L150.745 10.5262C151.267 9.57733 151.976 8.83701 152.872 8.30522C153.769 7.77344 154.796 7.50755 155.954 7.50755C156.287 7.50755 156.621 7.53361 156.955 7.58575C157.299 7.62746 157.648 7.69523 158.003 7.78908L157.439 11.8244C156.751 11.6263 156.1 11.5272 155.484 11.5272C154.619 11.5272 153.858 11.7253 153.201 12.1216C152.554 12.5074 152.054 13.0496 151.699 13.7482C151.345 14.4364 151.168 15.2445 151.168 16.1725V23.4611ZM171 23.0544C169.801 23.5341 168.638 23.7739 167.512 23.7739C166.344 23.7739 165.312 23.5289 164.415 23.0388C163.529 22.5383 162.836 21.8449 162.335 20.9586C161.835 20.0618 161.584 19.0295 161.584 17.8617V11.8244H158.847V7.82036H161.819V3.91018H166.073V7.82036H170.406V11.8244H166.073V17.0484C166.073 17.9034 166.308 18.5707 166.777 19.0504C167.246 19.5196 167.83 19.7542 168.529 19.7542C169.165 19.7542 169.785 19.5561 170.39 19.1599L171 23.0544Z" fill="#1D2026"/>
</svg>
