<svg width="275" height="40" viewBox="0 0 275 40" fill="none" xmlns="http://www.w3.org/2000/svg">
<path fill-rule="evenodd" clip-rule="evenodd" d="M164.595 21.9108L177.652 40H167.2L158.485 27.9267L152.445 33.8772V39.9086H144.07V0H152.445V22.4451L166.115 8.93497H177.769L164.595 21.9108ZM103.207 29.1902C102.345 35.8584 96.96 40 86.7716 40C76.1393 40 70.0995 34.6463 70.0995 24.3088C70.0995 14.1624 76.293 8.61826 86.7716 8.61826C91.1612 8.61826 94.6508 9.71845 97.274 11.5479V11.5368C103.269 15.5848 103.806 22.1577 103.325 26.4162H103.016L103.016 26.4184H78.2727C78.8488 30.5706 81.3294 32.6287 86.7716 32.6287C91.797 32.6287 94.2854 31.23 95.0588 29.1902H103.207ZM16.4337 40C25.9564 40 31.4716 38.4934 31.4716 30.7871C31.4716 23.989 24.7114 22.4443 18.1519 21.4247L17.0307 21.2541L16.474 21.1711L15.7758 21.0664C10.3734 20.2553 9.41363 19.49 9.41363 18.1241C9.41363 17.1684 10.3955 15.4619 15.0991 15.4619C20.0095 15.4619 22.086 16.7565 22.086 19.2027V19.4701H30.649V19.2043C30.649 14.426 27.9489 8.72789 15.0991 8.72789C3.19633 8.72789 0.697469 13.8966 0.697469 18.2321C0.697469 24.4262 6.22371 26.4035 15.145 27.5828C15.5651 27.6377 16.0096 27.6908 16.4613 27.744C19.7994 28.1376 22.8063 28.5823 22.8063 30.915C22.8063 32.9343 19.576 33.3573 16.2103 33.3573C10.6166 33.3573 8.64241 32.173 8.64241 29.518V29.2506H0.00420118L0.000884246 29.853L0 30.4866C0.0169084 32.0668 0.235982 34.3118 2.11386 36.21C4.60553 38.7237 9.42303 40 16.4337 40ZM42.8541 40V25.0192C42.8541 20.8123 43.9471 16.1745 51.2065 16.1745C58.8275 16.1745 58.7712 21.4366 58.7432 24.0495L58.7412 24.2574L58.7402 40H67.1019V24.4644C67.1003 19.9369 66.7509 8.93109 53.6379 8.93109C48.0824 8.93109 45.254 10.755 43.2489 13.4919H42.8541V8.93497H34.4409V40H42.8541ZM94.9692 20.8521H78.5945C79.5653 17.7033 82.1211 15.9896 86.7716 15.9896C92.7606 15.9896 94.2815 18.525 94.9692 20.8521ZM140.998 8.91448V40H132.581V35.6624H132.318C130.218 38.3649 126.678 40 120.85 40C107.832 40 106.366 28.6426 106.366 24.4572L106.368 24.1834C106.425 19.4998 108.009 8.91448 120.874 8.91448C126.611 8.91448 130.122 10.7256 132.228 13.4791L132.581 13.4791V8.91448H140.998ZM123.291 32.7532C115.298 32.7532 114.397 26.6908 114.397 24.4572C114.397 22.0387 115.247 16.1612 123.305 16.1612C130.569 16.1612 132.055 20.2497 132.055 24.4572C132.055 29.1592 130.57 32.7532 123.291 32.7532ZM197.451 40C207.64 40 213.025 35.8584 213.886 29.1902H205.738C204.965 31.23 202.477 32.6287 197.451 32.6287C192.009 32.6287 189.528 30.5706 188.952 26.4184H213.696V26.4162H214.005C214.486 22.1577 213.948 15.5848 207.954 11.5368V11.5479C205.33 9.71845 201.841 8.61826 197.451 8.61826C186.973 8.61826 180.779 14.1624 180.779 24.3088C180.779 34.6463 186.819 40 197.451 40ZM189.274 20.8521H205.649C204.961 18.525 203.44 15.9896 197.451 15.9896C192.801 15.9896 190.245 17.7033 189.274 20.8521ZM225.519 40V26.0613C225.519 21.8538 227.382 16.9763 233.62 16.9763C236.28 16.9763 238.406 17.4486 239.19 17.6684L240.53 9.71678C240.376 9.68287 240.218 9.64734 240.057 9.61091L240.056 9.61083C238.689 9.30293 237.038 8.93109 235.017 8.93109C229.685 8.93109 227.772 10.5202 226.044 13.4958H225.519V8.93109H217.101V40H225.519ZM275 30.7871C275 38.4934 269.485 40 259.962 40C252.951 40 248.134 38.7237 245.642 36.21C243.764 34.3118 243.545 32.0668 243.528 30.4866L243.529 29.853L243.533 29.2506H252.171V29.518C252.171 32.173 254.145 33.3573 259.739 33.3573C263.104 33.3573 266.335 32.9343 266.335 30.915C266.335 28.5823 263.328 28.1376 259.99 27.744C259.538 27.6908 259.094 27.6377 258.673 27.5828C249.752 26.4035 244.226 24.4262 244.226 18.2321C244.226 13.8966 246.725 8.72789 258.628 8.72789C271.477 8.72789 274.177 14.426 274.177 19.2043V19.4701H265.614V19.2027C265.614 16.7565 263.538 15.4619 258.628 15.4619C253.924 15.4619 252.942 17.1684 252.942 18.1241C252.942 19.49 253.902 20.2553 259.304 21.0664L260.002 21.1711L260.559 21.2541L261.68 21.4247C268.24 22.4443 275 23.989 275 30.7871Z" fill="#1D2026"/>
</svg>
